<svg width="25" height="16" viewBox="0 0 25 16" fill="none" xmlns="http://www.w3.org/2000/svg">
<path d="M12.085 15.2314C19.3008 15.2314 24.1523 9.41309 24.1523 7.61133C24.1523 5.80957 19.2832 0 12.085 0C4.97461 0 0 5.80957 0 7.61133C0 9.41309 4.95703 15.2314 12.085 15.2314ZM12.085 13.5088C6.47754 13.5088 2.03906 8.8418 2.03906 7.61133C2.03906 6.58301 6.47754 1.72266 12.085 1.72266C17.666 1.72266 22.1133 6.58301 22.1133 7.61133C22.1133 8.8418 17.666 13.5088 12.085 13.5088ZM12.085 12.3311C14.7041 12.3311 16.8047 10.1777 16.8047 7.61133C16.8047 4.9834 14.7041 2.90039 12.085 2.90039C9.44824 2.90039 7.33887 4.9834 7.34766 7.61133C7.36523 10.1777 9.44824 12.3311 12.085 12.3311ZM12.0762 9.13184C11.2324 9.13184 10.5469 8.44629 10.5469 7.61133C10.5469 6.77637 11.2324 6.09082 12.0762 6.09082C12.9199 6.09082 13.6055 6.77637 13.6055 7.61133C13.6055 8.44629 12.9199 9.13184 12.0762 9.13184Z" fill="white"/>
</svg>
